<mxfile host="app.diagrams.net" modified="2024-03-02T13:29:28.150Z" agent="Mozilla/5.0 (Macintosh; Intel Mac OS X 10.15; rv:123.0) Gecko/20100101 Firefox/123.0" etag="qysmqyBefhv-NY_vM0n8" version="23.1.5" type="device">
  <diagram name="第 1 页" id="cpCZoX_FY4xJDJWEHQoA">
    <mxGraphModel dx="954" dy="589" grid="0" gridSize="10" guides="1" tooltips="1" connect="1" arrows="1" fold="1" page="1" pageScale="1" pageWidth="827" pageHeight="1169" background="none" math="0" shadow="1">
      <root>
        <mxCell id="0" />
        <mxCell id="1" parent="0" />
        <mxCell id="ml_W1l7QFs6_kk3Fckrf-1" value="工作目录&lt;br&gt;working directory" style="shape=umlLifeline;perimeter=lifelinePerimeter;whiteSpace=wrap;html=1;container=1;dropTarget=0;collapsible=0;recursiveResize=0;outlineConnect=0;portConstraint=eastwest;newEdgeStyle={&quot;curved&quot;:0,&quot;rounded&quot;:0};" vertex="1" parent="1">
          <mxGeometry x="90" y="80" width="100" height="420" as="geometry" />
        </mxCell>
        <mxCell id="ml_W1l7QFs6_kk3Fckrf-2" value="索引&lt;br&gt;Index" style="shape=umlLifeline;perimeter=lifelinePerimeter;whiteSpace=wrap;html=1;container=1;dropTarget=0;collapsible=0;recursiveResize=0;outlineConnect=0;portConstraint=eastwest;newEdgeStyle={&quot;curved&quot;:0,&quot;rounded&quot;:0};" vertex="1" parent="1">
          <mxGeometry x="280" y="80" width="100" height="420" as="geometry" />
        </mxCell>
        <mxCell id="ml_W1l7QFs6_kk3Fckrf-3" value="头指针&lt;br&gt;HEAD" style="shape=umlLifeline;perimeter=lifelinePerimeter;whiteSpace=wrap;html=1;container=1;dropTarget=0;collapsible=0;recursiveResize=0;outlineConnect=0;portConstraint=eastwest;newEdgeStyle={&quot;curved&quot;:0,&quot;rounded&quot;:0};" vertex="1" parent="1">
          <mxGeometry x="480" y="80" width="100" height="420" as="geometry" />
        </mxCell>
        <mxCell id="ml_W1l7QFs6_kk3Fckrf-7" value="" style="verticalLabelPosition=bottom;verticalAlign=top;html=1;strokeWidth=1;shape=mxgraph.arrows2.arrow;dy=0.6;dx=40;notch=0;rotation=-180;fillColor=#E6E6E6;" vertex="1" parent="1">
          <mxGeometry x="150" y="150" width="372" height="70" as="geometry" />
        </mxCell>
        <mxCell id="ml_W1l7QFs6_kk3Fckrf-8" value="检出项目" style="text;html=1;align=center;verticalAlign=middle;whiteSpace=wrap;rounded=0;" vertex="1" parent="1">
          <mxGeometry x="300" y="170" width="60" height="30" as="geometry" />
        </mxCell>
        <mxCell id="ml_W1l7QFs6_kk3Fckrf-10" value="" style="verticalLabelPosition=bottom;verticalAlign=top;html=1;strokeWidth=1;shape=mxgraph.arrows2.arrow;dy=0.6;dx=40;notch=0;rotation=0;fillColor=#E6E6E6;" vertex="1" parent="1">
          <mxGeometry x="150" y="256" width="180" height="70" as="geometry" />
        </mxCell>
        <mxCell id="ml_W1l7QFs6_kk3Fckrf-11" value="暂存文件" style="text;html=1;align=center;verticalAlign=middle;whiteSpace=wrap;rounded=0;" vertex="1" parent="1">
          <mxGeometry x="180" y="276" width="60" height="30" as="geometry" />
        </mxCell>
        <mxCell id="ml_W1l7QFs6_kk3Fckrf-12" value="" style="verticalLabelPosition=bottom;verticalAlign=top;html=1;strokeWidth=1;shape=mxgraph.arrows2.arrow;dy=0.6;dx=40;notch=0;rotation=0;fillColor=#E6E6E6;" vertex="1" parent="1">
          <mxGeometry x="342" y="320" width="180" height="70" as="geometry" />
        </mxCell>
        <mxCell id="ml_W1l7QFs6_kk3Fckrf-13" value="提交变更" style="text;html=1;align=center;verticalAlign=middle;whiteSpace=wrap;rounded=0;" vertex="1" parent="1">
          <mxGeometry x="372" y="340" width="60" height="30" as="geometry" />
        </mxCell>
      </root>
    </mxGraphModel>
  </diagram>
</mxfile>
